# xmcd CD database file
#
# Track frame offsets:
#	150
#	18151
#	27841
#	61497
#	68648
#	89304
#	107717
#	126462
#	168960
#	184424
#	204656
#	209465
#
# Disc length: 3155 seconds
#
# Revision: 0
# Processed by: cddbd v1.5.2PL0 Copyright (c) Steve Scherf et al.
# Submitted via: CDex 1.51
#
DISCID=a90c510c
DTITLE=Levity - Chopin Shuffle CD2
DYEAR=2010
DGENRE=Jazz
TTITLE0=Humans
TTITLE1=Keya
TTITLE2=Take me to the woods
TTITLE3=Hommage a Emil Zatopek
TTITLE4=A miracle
TTITLE5=Mchy
TTITLE6=We also have snow in Poland
TTITLE7=In C
TTITLE8=Hennessey
TTITLE9=Passacaglia - animals
TTITLE10=Interludium
TTITLE11=Finale - spirits
EXTD=YEAR: 2010
EXTT0=
EXTT1=
EXTT2=
EXTT3=
EXTT4=
EXTT5=
EXTT6=
EXTT7=
EXTT8=
EXTT9=
EXTT10=
EXTT11=
PLAYORDER=
